<?xml version="1.0" encoding="UTF-8" standalone="no"?>
<svg
   xmlns:dc="http://purl.org/dc/elements/1.1/"
   xmlns:cc="http://creativecommons.org/ns#"
   xmlns:rdf="http://www.w3.org/1999/02/22-rdf-syntax-ns#"
   xmlns:svg="http://www.w3.org/2000/svg"
   xmlns="http://www.w3.org/2000/svg"
   xmlns:sodipodi="http://sodipodi.sourceforge.net/DTD/sodipodi-0.dtd"
   xmlns:inkscape="http://www.inkscape.org/namespaces/inkscape"
   version="1.1"
   id="svg2"
   xml:space="preserve"
   width="2829.3333"
   height="2829.3333"
   viewBox="0 0 2829.3333 2829.3333"
   sodipodi:docname="57697.svg"
   inkscape:version="1.0 (4035a4fb49, 2020-05-01)"><metadata
     id="metadata8"><rdf:RDF><cc:Work
         rdf:about=""><dc:format>image/svg+xml</dc:format><dc:type
           rdf:resource="http://purl.org/dc/dcmitype/StillImage" /><dc:title /></cc:Work></rdf:RDF></metadata><defs
     id="defs6" /><sodipodi:namedview
     inkscape:document-rotation="0"
     pagecolor="#ffffff"
     bordercolor="#666666"
     borderopacity="1"
     objecttolerance="10"
     gridtolerance="10"
     guidetolerance="10"
     inkscape:pageopacity="0"
     inkscape:pageshadow="2"
     inkscape:window-width="1366"
     inkscape:window-height="715"
     id="namedview4"
     showgrid="false"
     inkscape:zoom="0.096665884"
     inkscape:cx="3018.603"
     inkscape:cy="2087.885"
     inkscape:window-x="0"
     inkscape:window-y="0"
     inkscape:window-maximized="1"
     inkscape:current-layer="g12" /><g
     id="g10"
     inkscape:groupmode="layer"
     inkscape:label="ink_ext_XXXXXX"
     transform="matrix(1.3333333,0,0,-1.3333333,0,2829.3333)"><g
       id="g12"
       transform="matrix(0.1,0,0,0.1,335.6029,0)"><g
         id="g22"
         transform="matrix(1.2056,0,0,1.2056,-2838.1989,-299.28069)"><path
           d="m 16300,11806.5 h -738"
           style="fill:none;stroke:#709eda;stroke-width:99.7532;stroke-linecap:butt;stroke-linejoin:miter;stroke-miterlimit:10;stroke-dasharray:none;stroke-opacity:1"
           id="path24" /></g><g
         id="g26"
         transform="matrix(1.14288,0,0,1.14288,-2838.1989,-299.28069)"><path
           d="m 16300,12454.4 h -389.2"
           style="fill:none;stroke:#709eda;stroke-width:105.227;stroke-linecap:butt;stroke-linejoin:miter;stroke-miterlimit:10;stroke-dasharray:none;stroke-opacity:1"
           id="path28" /></g><g
         id="g30"
         transform="matrix(1.08771,0,0,1.08771,-2838.1989,-299.28069)"><path
           d="m 11108.5,16300 h 343.2"
           style="fill:none;stroke:#709eda;stroke-width:110.564;stroke-linecap:butt;stroke-linejoin:miter;stroke-miterlimit:10;stroke-dasharray:none;stroke-opacity:1"
           id="path32" /></g><g
         id="g34"
         transform="matrix(1.08771,0,0,1.08771,-2838.1989,-299.28069)"><path
           d="m 11540.2,16300 h 296.7"
           style="fill:none;stroke:#709eda;stroke-width:110.564;stroke-linecap:butt;stroke-linejoin:miter;stroke-miterlimit:10;stroke-dasharray:none;stroke-opacity:1"
           id="path36" /></g><g
         id="g38"
         transform="matrix(1.08771,0,0,1.08771,-2838.1989,-299.28069)"><path
           d="m 10710.2,16300 h 296.7"
           style="fill:none;stroke:#709eda;stroke-width:110.564;stroke-linecap:butt;stroke-linejoin:miter;stroke-miterlimit:10;stroke-dasharray:none;stroke-opacity:1"
           id="path40" /></g><g
         id="g42"
         transform="matrix(1.17633,0,0,1.17633,-2838.1989,-299.28069)"><path
           d="m 16194.6,16173.4 105.4,-105.5"
           style="fill:none;stroke:#709eda;stroke-width:102.235;stroke-linecap:butt;stroke-linejoin:miter;stroke-miterlimit:10;stroke-dasharray:none;stroke-opacity:1"
           id="path44" /></g><g
         id="g46"
         transform="matrix(1.18931,0,0,1.18931,-2838.1989,-299.28069)"><path
           d="m 16195.7,15819 104.3,-104.2"
           style="fill:none;stroke:#709eda;stroke-width:101.119;stroke-linecap:butt;stroke-linejoin:miter;stroke-miterlimit:10;stroke-dasharray:none;stroke-opacity:1"
           id="path48" /></g><g
         id="g50"
         transform="matrix(1.18931,0,0,1.18931,-2838.1989,-299.28069)"><path
           d="m 16300,15996.9 -104.3,-104.3"
           style="fill:none;stroke:#709eda;stroke-width:101.119;stroke-linecap:butt;stroke-linejoin:miter;stroke-miterlimit:10;stroke-dasharray:none;stroke-opacity:1"
           id="path52" /></g><g
         id="g54"
         transform="matrix(1.17633,0,0,1.17633,-2838.1989,-299.28069)"><path
           d="m 16300,15993.5 -105.4,-105.4"
           style="fill:none;stroke:#709eda;stroke-width:102.235;stroke-linecap:butt;stroke-linejoin:miter;stroke-miterlimit:10;stroke-dasharray:none;stroke-opacity:1"
           id="path56" /></g><path
         d="m 5135.5311,3983.8193 124.02,-124.1"
         style="fill:none;stroke:#709eda;stroke-width:120.262;stroke-linecap:butt;stroke-linejoin:miter;stroke-miterlimit:10;stroke-dasharray:none;stroke-opacity:1"
         id="path58" /><path
         d="m 5347.0511,3772.2193 124.02,-124"
         style="fill:none;stroke:#709eda;stroke-width:120.262;stroke-linecap:butt;stroke-linejoin:miter;stroke-miterlimit:10;stroke-dasharray:none;stroke-opacity:1"
         id="path60" /><path
         d="m 5471.0711,3983.8193 -124.02,-124.1"
         style="fill:none;stroke:#709eda;stroke-width:120.262;stroke-linecap:butt;stroke-linejoin:miter;stroke-miterlimit:10;stroke-dasharray:none;stroke-opacity:1"
         id="path62" /><path
         d="m 5259.5511,3772.2193 -124.02,-124"
         style="fill:none;stroke:#709eda;stroke-width:120.262;stroke-linecap:butt;stroke-linejoin:miter;stroke-miterlimit:10;stroke-dasharray:none;stroke-opacity:1"
         id="path64" /><path
         d="m 7640.8011,1331.2193 c 0,-85 -68.9,-154 -153.9,-154 -85.1,0 -154,69 -154,154 0,85 68.9,153.8999 154,153.8999 85,0 153.9,-68.8999 153.9,-153.8999 z"
         style="fill:none;stroke:#709eda;stroke-width:120.262;stroke-linecap:butt;stroke-linejoin:miter;stroke-miterlimit:10;stroke-dasharray:none;stroke-opacity:1"
         id="path66" /><g
         id="g68"
         transform="matrix(1.21167,0,0,1.21167,-2838.1989,-299.28069)"><path
           d="m 7976.17,16172.9 c 0,-70.1 -56.85,-127 -127.02,-127 -70.18,0 -127.07,56.9 -127.07,127 0,70.2 56.89,127.1 127.07,127.1 70.17,0 127.02,-56.9 127.02,-127.1 z"
           style="fill:none;stroke:#709eda;stroke-width:99.253;stroke-linecap:butt;stroke-linejoin:miter;stroke-miterlimit:10;stroke-dasharray:none;stroke-opacity:1"
           id="path70" /></g><path
         d="m -965.9989,8965.9193 c 0,-85.1 -68.91,-154 -153.94,-154 -85.03,0 -153.91,68.9 -153.91,154 0,85 68.88,153.9 153.91,153.9 85.03,0 153.94,-68.9 153.94,-153.9 z"
         style="fill:none;stroke:#709eda;stroke-width:120.262;stroke-linecap:butt;stroke-linejoin:miter;stroke-miterlimit:10;stroke-dasharray:none;stroke-opacity:1"
         id="path72" /><path
         d="m 8165.7011,4177.4193 c 81.5,55 222.2,51.6 336.6,72.7 59.3,10.9 120.3,27.1 168,48.9 10.4,4.8 61.8,34.4 91.7,59.8 l -1361.2,572.8 1060.7,715.7 c -4.4,2.1 -9,4.2 -13.7,6.3 -52.4,23.3 -127.6,48.5 -139.5,51.1 -158.1,34.8 -372.1,-7.5 -514.3,52.4 -161.9,72.3 -127.8,241.4 78.4,380.4 208.3,140.7 513.7,197.3 686.9,124.3 99.3,-44.2 95.3,-117.5 135.8,-177.5 21.2,-31.6 52.5,-64.2 94,-89.8 5,-3.1 24.1,-12.7 48.3,-23.5 20,-8.9 43.5,-18.6 65.3,-26 l 1061.8998,716.5 3286.5001,-1382.9 -2563.8,-1730 -1359.7001,572.2 c -46.2,-27.3 -100.8998,-73.8 -106.1998,-80.7 -63.6,-83.6 18.4,-197.9 -88.2,-269.8 -131.3,-88.5 -454.2,-69.2 -721.4,43.2 -7.5,3.2 -14.9,6.4 -22.1,9.7 -251,111.9 -351.5,268.1 -224,354.2"
         style="fill:#9fc7ec;fill-opacity:1;fill-rule:nonzero;stroke:none"
         id="path74" /><path
         d="m 8375.6011,7330.1193 -3286.42,1383 -2563.8,-1730 1361.27,-572.8 c -30.03,-25.4 -81.23,-55 -91.74,-59.8 -47.75,-21.7 -108.71,-38 -167.93,-48.9 -114.52,-21.1 -255.09,-17.7 -336.64,-72.7 -127.53,-86.1 -27.12,-242.3 223.85,-354.2 7.27,-3.3 14.71,-6.5 22.21,-9.7 267.17,-112.3 590.15,-131.8 721.36,-43.1 106.59,71.9 24.61,186.1 88.26,269.7 5.23,6.9 59.96,53.4 106.27,80.7 l 1359.53,-572.1 1060.78,715.7 c -4.31,2.1 -8.86,4.2 -13.59,6.3 -52.43,23.3 -127.68,48.4 -139.63,51.1 -158.2,34.8 -372.15,-7.4 -508.81,50.1 -167.46,74.6 -133.27,243.7 72.8,382.8 208.36,140.6 513.7,197.2 681.97,126.5 104.37,-46.5 100.28,-119.7 140.79,-179.8 21.22,-31.6 52.43,-64.2 93.97,-89.9 5,-3 24,-12.5 48,-23.2 20.1,-9 43.7,-18.8 65.7,-26.2 l 1061.8,716.5"
         style="fill:#9fc7ec;fill-opacity:1;fill-rule:nonzero;stroke:none"
         id="path76" /><path
         d="m 7223.6011,12385.019 c 0,-1.9 0.1,-3.8 0.2,-5.6 0,-2 0.1,-4 0.2,-5.9 0.1,-1.6 0.4,-3.3 0.5,-4.9 0.3,-1.9 0.5,-3.9 0.8,-5.8 0.3,-1.8 0.6,-3.6 1,-5.5 0.3,-1.3 0.6,-2.8 0.9,-4.2 0.5,-1.9 1,-3.7 1.6,-5.6 0.3,-1.3 0.7,-2.7 1.1,-4 0.3,-0.8 0.6,-1.5 0.9,-2.3 1.8,-5.2 3.9,-10.3 6.4,-15.2 0,-0.2 0.1,-0.3 0.2,-0.4 2.4,-4.8 5.3,-9.4 8.4,-14 0.5,-0.7 1,-1.5 1.5,-2.2 3.1,-4.4 6.6,-8.7 10.4,-12.8 1,-1.3 2.1,-2.4 3.2,-3.6 1.2,-1.2 2.4,-2.4 3.6,-3.6 1.4,-1.4 2.9,-2.8 4.4,-4 1.3,-1.3 2.6,-2.5 4,-3.6 1.3,-1.1 2.6,-2.2 3.9,-3.2 2.4,-1.9 4.8,-3.8 7.4,-5.6 1.3,-1 2.6,-1.9 4,-2.9 2.7,-1.9 5.5,-3.7 8.5,-5.5 1.2,-0.8 2.4,-1.5 3.7,-2.3 2.5,-1.5 5.2,-2.9 7.8,-4.3 1.5,-0.8 2.9,-1.6 4.4,-2.4 4.2,-2.2 8.5,-4.3 13.1,-6.3 17,-7.1 35.1,-12.8 53.9,-17.5 15.1,-3.6 30.6,-6.4 46.6,-8.8 15.1,-2.2 30.7,-3.9 46.5,-5.1 22,-1.8 44.5,-2.8 67.3,-3.5 49.9,-1.4 101,-0.9 150.7,-2.3 22.4,-0.6 44.6,-1.7 66.1,-3.4 l -6.7,-764.4 c -21.6,1.8 -43.7,2.8 -66.1,3.4 -49.7,1.4 -100.8,0.9 -150.7,2.4 -22.8,0.6 -45.3,1.6 -67.3,3.4 -15.8,1.3 -31.4,3 -46.5,5.2 -16,2.3 -31.5,5.2 -46.6,8.8 -18.9,4.6 -36.9,10.3 -54,17.5 -4.5,2 -8.9,4.1 -13.1,6.3 -1.2,0.6 -2.4,1.3 -3.6,1.9 -2.9,1.5 -5.8,3.2 -8.6,4.8 -0.3,0.1 -0.6,0.3 -0.9,0.5 -0.8,0.5 -1.6,1.1 -2.4,1.5 -3.1,1.9 -6,3.8 -8.9,5.8 -1.3,0.9 -2.6,1.8 -3.9,2.8 -2.6,1.8 -5,3.7 -7.4,5.6 -0.7,0.6 -1.5,1.1 -2.2,1.7 -0.6,0.4 -1.1,1 -1.7,1.4 -1.4,1.3 -2.7,2.4 -4.1,3.7 -1.4,1.3 -2.9,2.6 -4.3,4 -1.2,1.3 -2.5,2.5 -3.7,3.7 -0.7,0.8 -1.5,1.5 -2.2,2.3 -0.3,0.3 -0.6,0.8 -0.9,1.1 -3.8,4.2 -7.3,8.5 -10.4,13 -0.2,0.2 -0.5,0.4 -0.7,0.7 -0.3,0.5 -0.5,1 -0.8,1.4 -3.1,4.6 -6,9.3 -8.5,14.1 v 0 c 0,0.1 0,0.1 -0.1,0.3 -2.5,5 -4.7,10.2 -6.5,15.4 -0.1,0.4 -0.4,0.7 -0.5,1.1 -0.1,0.3 -0.2,0.6 -0.2,0.9 -0.5,1.6 -1,3.1 -1.4,4.6 -0.5,1.7 -1,3.4 -1.4,5.1 -0.3,1.4 -0.6,3 -0.9,4.6 -0.3,1.2 -0.6,2.5 -0.9,3.8 0,0.4 -0.1,0.9 -0.1,1.3 -0.3,2.1 -0.6,4.1 -0.8,6.1 -0.2,1.5 -0.4,3 -0.5,4.5 -0.2,2.2 -0.2,4.5 -0.3,6.8 0,1.1 -0.1,2.2 -0.1,3.3 0,0.5 0,1 0,1.5 l 6.7,764.4"
         style="fill:#781d43;fill-opacity:1;fill-rule:nonzero;stroke:none"
         id="path78" /><path
         d="m 7839.9011,12196.919 c 0.3,-0.1 0.6,-0.2 0.8,-0.2 14.2,-3.5 87.4,-28.1 138.7,-51 4.8,-2.1 9.4,-4.2 13.7,-6.3 l -6.7,-764.4 c -4.3,2.1 -8.9,4.2 -13.7,6.3 -51.3,22.9 -124.5,47.5 -138.7,51 -0.3,0.1 -0.5,0.2 -0.8,0.2 -12,2.6 -24.3,4.9 -36.9,6.7 -15.1,2.2 -30.5,3.8 -46.2,5.1 l 6.7,764.4 c 15.7,-1.3 31.1,-3 46.2,-5.2 12.6,-1.8 24.9,-4 36.9,-6.6"
         style="fill:#781d43;fill-opacity:1;fill-rule:nonzero;stroke:none"
         id="path80" /><path
         d="m 6925.7711,10659.319 6.72,764.4 1361.21,-572.8 -5.6,-636.1 c 158.1,-18.9 300.1,-4.1 376.8,47.7 51,34.3 58.8,78.5 60,124.3 0.1,12.6 0.3,25.2 0.4,37.8 0.3,37.7 2.9,74.9 27.7,107.7 5.4,6.8 60.1,53.3 106.2,80.6 l 1359.6999,-572.1 -6.7,-764.2997 -1359.6999,572.1 c -46.1,-27.3 -100.9,-73.9 -106.2,-80.7 -22.2,-29.3 -26.6,-62.3 -27.5,-95.9 -0.1,-12.6 -0.2,-25.3 -0.4,-37.8 -0.4,-50 -4.9,-98.8 -60.3,-136.1 -131.2,-88.5 -454.1,-69.2 -721.3,43.2 -7.5,3.2 -14.9,6.4 -22.2,9.6 -177.7,79.3 -280,180.8 -279.3,263.8 1.6,181.4 3.2,362.6997 4.8,544.0997 l -714.33,300.5"
         style="fill:#9e2e6c;fill-opacity:1;fill-rule:nonzero;stroke:none"
         id="path82" /><path
         d="m 7325.7011,12249.319 -6.8,-764.3 c 142.3,-60 356.2,-17.8 514.3,-52.5 12,-2.7 87.2,-27.8 139.5,-51.2 4.8,-2.1 9.4,-4.2 13.7,-6.3 l 6.7,764.4 c -4.3,2.1 -8.9,4.2 -13.7,6.3 -52.3,23.4 -127.5,48.5 -139.5,51.2 -158.1,34.7 -372,-7.5 -514.2,52.4"
         style="fill:#781d43;fill-opacity:1;fill-rule:nonzero;stroke:none"
         id="path84" /><path
         d="m 10218.901,10040.819 2563.8,1730 -6.7,-764.3 -2563.8,-1729.9997 6.7,764.2997"
         style="fill:#781d43;fill-opacity:1;fill-rule:nonzero;stroke:none"
         id="path86" /><path
         d="m 7697.4011,10669.519 c 81.5,55.1 222.1,51.6 336.5,72.7 59.4,11 120.4,27.1 168.1,49 10.4,4.7 61.7,34.3 91.7,59.7 l -1361.21,572.8 1060.61,715.7 c -4.3,2.1 -8.9,4.2 -13.7,6.3 -52.3,23.4 -127.5,48.5 -139.5,51.2 -158.1,34.7 -372,-7.5 -514.2,52.4 -162,72.2 -127.9,241.4 78.3,380.4 208.4,140.6 513.7,197.3 687,124.3 99.2,-44.2 95.3,-117.5 135.7,-177.5 21.3,-31.7 52.5,-64.3 94.1,-89.9 5,-3 24.1,-12.7 48.3,-23.5 20,-8.9 43.4,-18.6 65.3,-25.9 l 1061.8998,716.5 3286.4001,-1382.9 -2563.8,-1730 -1359.6999,572.1 c -46.1,-27.3 -100.8,-73.8 -106.2,-80.6 -63.5,-83.7 18.5,-197.9 -88.1,-269.8 -131.3,-88.6 -454.2,-69.2 -721.4,43.2 -7.5,3.2 -14.9,6.4 -22.2,9.6 -251,111.9 -351.5,268.2 -223.9,354.2"
         style="fill:#cc337d;fill-opacity:1;fill-rule:nonzero;stroke:none"
         id="path88" /><path
         d="m 10426.501,9774.1193 c 0,0 -114.3,74.1 -4.5,210.9 283.7,18.0997 617.2,171.2997 617.2,171.2997 417,131.2 1002.7,776.7 1269.3,1070.4 299.4,329.8 752.7,49.8 509.4,-326.7 -455.2,-704.6 -1651.6,-1169.0997 -2385.4,-1141.5997"
         style="fill:#f7906e;fill-opacity:1;fill-rule:nonzero;stroke:none"
         id="path90" /><g
         id="g92"
         transform="matrix(1.0607,0,0,1.0607,-2838.1989,-299.28069)"><path
           d="m 15432.4,6407.38 c -164.4,767.42 -213.6,2545.02 -213.6,2545.02 0,0 131.7,174.69 605.8,205.24 475.4,30.64 442.6,-261.53 440.4,-223.63 0,0 -0.4,-1257.94 -218.1,-2496.56 0,0 -338.1,-233.15 -614.5,-30.07"
           style="fill:#1b3666;fill-opacity:1;fill-rule:nonzero;stroke:none"
           id="path94" /></g><g
         id="g96"
         transform="matrix(1.06115,0,0,1.06115,-2838.1989,-299.28069)"><path
           d="m 16253.3,8843.26 c 46.7,317.48 -50,637.7 -99.9,958.49 h -1443.3 c -92.3,-307.69 -188.3,-623.67 -188.3,-623.67 0,0 -61.8,-727.7 556.3,-814.96 0,0 1077.1,-186.69 1175.2,480.14"
           style="fill:#2e7ba2;fill-opacity:1;fill-rule:nonzero;stroke:none"
           id="path98" /></g><g
         id="g100"
         transform="matrix(1.11327,0,0,1.11327,-2838.1989,-299.28069)"><path
           d="m 16300,3148.74 c 0,-583.23 -1062.5,-1056.08 -2373.4,-1056.08 -1310.7,0 -2373.2,472.85 -2373.2,1056.08 0,583.15 1062.5,1055.9 2373.2,1055.9 1310.9,0 2373.4,-472.75 2373.4,-1055.9"
           style="fill:#9fc7ec;fill-opacity:1;fill-rule:nonzero;stroke:none"
           id="path102" /></g><path
         d="m 11128.901,3248.6192 87.3,5 c 29.7,4.6 29.5,-42.2 33.5,-43.7 91.3,-36 172.4,-64.1 206.7,-65.6 0,0 161.4,21 178.7,69.9 l -22.8,299.5001 c -179.9,15.2 -367.7,49.9 -367.7,49.9 l -395.4,55.6 c -190.2,19.8 -224.8,-49 -224.8,-49 0,0 -116.5,-173.9001 504.5,-321.6001"
         style="fill:#1a191a;fill-opacity:1;fill-rule:nonzero;stroke:none"
         id="path104" /><path
         d="m 11368.901,3266.3192 c -28.8,13.4 -71.6,27.9 -102.2,33.3 -195.1,34.1 -385.9,53.5 -548.2,178.8001 -39.7,30.6 -67.7,68.7 -70.5,114.2 -18,-11.8 -23.6,-22.4 -23.6,-22.4 0,0 -116.5,-173.9001 504.5,-321.6001 l 87.3,5 c 29.7,4.6 29.5,-42.2 33.5,-43.7 91.3,-36 172.4,-64.1 206.7,-65.6 0,0 161.4,21 178.7,69.9 l -5.6,73 c -64.2,-36.9 -177.7,-59.3 -260.6,-20.9"
         style="fill:#121010;fill-opacity:1;fill-rule:nonzero;stroke:none"
         id="path106" /><g
         id="g108"
         transform="matrix(1.04998,0,0,1.04998,-2838.1989,-299.28069)"><path
           d="m 15818,3449.58 83.1,4.77 c 28.3,4.48 28.1,-40.1 32,-41.62 86.9,-34.19 164,-61.05 196.7,-62.38 0,0 153.8,20 170.2,66.57 l -21.6,285.24 c -171.4,14.38 -350.2,47.53 -350.2,47.53 l -376.6,52.95 c -181.1,18.86 -214.1,-46.67 -214.1,-46.67 0,0 -110.9,-165.72 480.5,-306.39"
           style="fill:#1a191a;fill-opacity:1;fill-rule:nonzero;stroke:none"
           id="path110" /></g><g
         id="g112"
         transform="matrix(1.04998,0,0,1.04998,-2838.1989,-299.28069)"><path
           d="m 16046.6,3466.44 c -27.6,12.77 -68.3,26.58 -97.4,31.72 -185.8,32.57 -367.5,50.95 -522.2,170.38 -37.7,29.24 -64.3,65.43 -67,108.67 -17.3,-11.14 -22.5,-21.24 -22.5,-21.24 0,0 -110.9,-165.72 480.5,-306.39 l 83.1,4.77 c 28.3,4.48 28.1,-40.1 32,-41.62 86.9,-34.19 164,-61.05 196.7,-62.38 0,0 153.8,20 170.2,66.57 l -5.2,69.43 c -61.2,-35.15 -169.3,-56.38 -248.2,-19.91"
           style="fill:#121010;fill-opacity:1;fill-rule:nonzero;stroke:none"
           id="path114" /></g><g
         id="g116"
         transform="matrix(1.05463,0,0,1.05463,-2838.1989,-299.28069)"><path
           d="m 15780.1,3665.09 c -61.4,73.3 -262.9,2766.1 -262.9,2766.1 -33.5,413.89 654.8,240.09 654.8,240.09 100.2,-412.09 84.1,-489.66 115.6,-1001.02 12.4,-201.97 -19.8,-1874.79 -12.3,-2003.46 0,0 -319.5,-211.64 -495.2,-1.71"
           style="fill:#1b3666;fill-opacity:1;fill-rule:nonzero;stroke:none"
           id="path118" /></g><g
         id="g120"
         transform="matrix(1.06233,0,0,1.06233,-2838.1989,-299.28069)"><path
           d="m 15141.5,9419.34 c 0,0 -410.3,-698.56 -157.9,-1155.3 252.6,-456.73 1316.4,40.38 1251,569.23 -71.8,580.04 -597.1,831.1 -1093.1,586.07"
           style="fill:#334b8c;fill-opacity:1;fill-rule:nonzero;stroke:none"
           id="path122" /></g><g
         id="g124"
         transform="matrix(1.05925,0,0,1.05925,-2838.1989,-299.28069)"><path
           d="m 14890.4,10339.9 c -66.9,-237.8 -342.5,-1145.33 -342.5,-1145.33 755.4,-712.4 1730.6,-147.56 1740.4,-39.84 11.7,128.95 -132.2,621.19 -158.3,1152.17 0,0 -269.1,414.3 -1239.6,33"
           style="fill:#f69575;fill-opacity:1;fill-rule:nonzero;stroke:none"
           id="path126" /></g><g
         id="g128"
         transform="matrix(1.02442,0,0,1.02442,-2838.1989,-299.28069)"><path
           d="m 14456.6,6771.81 c 82.9,808.46 658.8,2870.79 658.8,2870.79 0,0 168.3,154.91 645.1,33.87 478,-121.44 529.5,-743.45 539.5,-705.38 0,0 -554.8,-1305.31 -1292.9,-2455.42 0,0 -356.7,-182.55 -550.5,256.14"
           style="fill:#334b8c;fill-opacity:1;fill-rule:nonzero;stroke:none"
           id="path130" /></g><path
         d="m 11234.601,3597.7193 c 14.3,99.8 750.9,3067.2 750.9,3067.2 173.3,365.9 671.2,-19.4 671.2,-19.4 -1.7,-265.6 -8.8,-586.1 -180.3,-1098.4 -67.7,-202.3 -693.9,-2034.9 -737.4,-2163.5001 0,0 -370.1,-117.3 -504.4,214.1001"
         style="fill:#334b8c;fill-opacity:1;fill-rule:nonzero;stroke:none"
         id="path132" /><g
         id="g134"
         transform="matrix(1.08844,0,0,1.08844,-2838.1989,-299.28069)"><path
           d="m 16227.2,11829.5 c 0,0 72.8,-1224.5 26.4,-1718.8 0,0 0,-224.68 -395.7,-337.32 0,0 -143.9,1363.32 -261,1972.02 0,0 233.6,451.3 630.3,84.1"
           style="fill:#e68368;fill-opacity:1;fill-rule:nonzero;stroke:none"
           id="path136" /></g><g
         id="g138"
         transform="matrix(1.08669,0,0,1.08669,-2838.1989,-299.28069)"><path
           d="m 15810.8,11531.8 c 162.7,-68.9 350.6,6 419.9,167.1 69.3,161.1 -6.3,347.5 -168.9,416.4 -162.6,68.8 -350.7,-6.1 -419.9,-167.3 -69.2,-161.1 6.3,-347.4 168.9,-416.2"
           style="fill:#e68368;fill-opacity:1;fill-rule:nonzero;stroke:none"
           id="path140" /></g><g
         id="g142"
         transform="matrix(1.08863,0,0,1.08863,-2838.1989,-299.28069)"><path
           d="m 15948.6,12174 c 0,0 289.2,-67 304.6,-402.3 L 16300,10565 c 0,0 -288.7,-191.8 -663,-159.2 0,0 -431.7,1611.5 311.6,1768.2"
           style="fill:#fcd062;fill-opacity:1;fill-rule:nonzero;stroke:none"
           id="path144" /></g><g
         id="g146"
         transform="matrix(1.02979,0,0,1.02979,-2838.1989,-299.28069)"><path
           d="m 15705.7,13679.4 c 0,0 -2.7,-455.6 -42.5,-909.5 l 601,99.6 c 0,0 -88.1,207.2 35.8,392.5 l -594.3,417.4"
           style="fill:#f69575;fill-opacity:1;fill-rule:nonzero;stroke:none"
           id="path148" /></g><g
         id="g150"
         transform="matrix(1.07579,0,0,1.07579,-2838.1989,-299.28069)"><path
           d="m 16139,12319.3 c 144.5,-105.6 161,-358.1 109.5,-515.8 -59.3,-181.1 -82.8,-412.3 -142,-674.2 -80.4,-355 -134.9,-628.4 -224.5,-980.9 -74.2,-291.6 -1245.7,-56.6 -1245.7,-56.6 l -419.9,1434.8 c 0,0 -72.3,374.6 267.1,499.2 0,0 357.4,193 619.1,281.7 231.1,78.2 314.8,85.6 552,71 0,0 317.9,-11.7 484.4,-59.2"
           style="fill:#f69575;fill-opacity:1;fill-rule:nonzero;stroke:none"
           id="path152" /></g><g
         id="g154"
         transform="matrix(1.01886,0,0,1.01886,-2838.1989,-299.28069)"><path
           d="m 15228.3,9859.07 c 0,0 -263.2,-424.79 0,-901.01 263.3,-476.32 1067,-302.69 1069.4,314.18 2.3,609.31 -552.2,842.36 -1069.4,586.83"
           style="fill:#334b8c;fill-opacity:1;fill-rule:nonzero;stroke:none"
           id="path156" /></g><g
         id="g158"
         transform="matrix(1.07508,0,0,1.07508,-2838.1989,-299.28069)"><path
           d="m 15664.9,12386.6 c 0,0 318.1,-11.7 484.7,-59.2 150.4,-110 147.8,-325.9 118.8,-489.3 -55.6,-312.4 -111.8,-628 -140.9,-944.1 -12.8,-140 -47.7,-425 -58.1,-565.2 -10.1,-136 -53.2,-210.9 -192.3,-282.8 -105.9,-54.55 -184.5,-11.2 -299.8,-14.3 -293.1,-8.1 -582.5,24 -873,60 -12.3,1.4 -465.6,-304.43 -316.4,-79.3 l -162.2,1521.8 c 0,0 -72.3,374.8 267.3,499.5 0,0 238.7,149.5 500.7,238.2 0,0 455.3,-11.6 671.2,114.7"
           style="fill:#fcd062;fill-opacity:1;fill-rule:nonzero;stroke:none"
           id="path160" /></g><g
         id="g162"
         transform="matrix(1.05171,0,0,1.05171,-2838.1989,-299.28069)"><path
           d="m 15180.3,12879 -25.1,96.9 c 0,0 -59.5,357.2 -59.5,357.3 -7.5,44.8 -1.8,103.2 11.1,147 14,47.8 25.2,98.1 18.3,150.8 -34.2,255.9 109.2,383 109.2,383 166.8,219.1 513.6,188.5 513.8,188.5 179.9,-27.3 337.1,-101.7 426.6,-265.8 81.2,-148.8 125.3,-330.3 77.2,-496.5 -52.9,-182.1 -154.9,-324.4 -289.9,-453.6 -86.5,-82.7 -174.9,-92.8 -288,-134.2 -78.8,-28.8 -229.6,-45.6 -313.2,-46.2 -43.9,-0.1 -166,17.2 -180.5,72.8"
           style="fill:#f7906e;fill-opacity:1;fill-rule:nonzero;stroke:none"
           id="path164" /></g><g
         id="g166"
         transform="matrix(1.05648,0,0,1.05648,-2838.1989,-299.28069)"><path
           d="m 15180.1,13803.1 55,-220.8 c 62.8,-27.5 88,-51.8 79.4,-134.4 l -20,-182.4 49.7,-19 c -4.2,73 97.1,74.1 97.2,74.1 73.9,4.2 86.6,-58.9 82.3,-119.7 -10.9,-157.7 46.5,-408.3 178.7,-452.4 52.3,-17.5 150.8,-35.6 167.3,35.2 20.2,86.5 184.1,258.4 184.1,258.4 196.9,190.6 246.2,516 153.2,764.6 -28.2,75.2 -83.6,153.6 -141.4,208.9 -122.7,117.5 -277.3,175.2 -440.3,196.4 0,0 -224.4,27.4 -350.6,-61.1 -78.2,-55 -129.5,-105.3 -162.9,-149.1 0,0 -47.8,-101.4 68.3,-198.7"
           style="fill:#39180f;fill-opacity:1;fill-rule:nonzero;stroke:none"
           id="path168" /></g><g
         id="g170"
         transform="matrix(1.00819,0,0,1.00819,-2838.1989,-299.28069)"><path
           d="m 16096.7,13718.7 c 14.9,-13.2 34.8,-21.5 60.3,-22.7 68.7,-3.4 129.8,57.2 136.4,135.3 6.6,78 -43.7,144 -112.3,147.3 -32.6,1.5 -63.5,-11.3 -87.6,-33.4 -35.2,-32.4 -40.3,-95.9 -35.2,-140.3 3.9,-35.5 15.8,-66.4 38.4,-86.2"
           style="fill:#f7906e;fill-opacity:1;fill-rule:nonzero;stroke:none"
           id="path172" /></g><g
         id="g174"
         transform="matrix(1.00422,0,0,1.00422,-2838.1989,-299.28069)"><path
           d="m 16212.5,13962.6 c 6.7,40.9 87.5,-3.7 73.4,-26.1 -8.2,-12.9 -23.3,-21.8 -35.4,-30.3 -16.6,-11.9 -25,-23.2 -28.5,-43.4 -0.5,-2.4 -1.4,-9.5 0.9,-11.3 10.4,-8.2 48.2,29.8 56.5,37.7 16.3,15.7 20.2,44.1 14.2,65.3 -6.4,22.4 -20.2,33.7 -43.8,33.8 -18.7,0 -37.8,0 -38.2,-23.4 0,-0.5 0.6,-4.4 0.9,-2.3 v 0"
           style="fill:#eb7963;fill-opacity:1;fill-rule:nonzero;stroke:none"
           id="path176" /></g><g
         id="g178"
         transform="matrix(1.00307,0,0,1.00307,-2838.1989,-299.28069)"><path
           d="m 16254.9,13934 c -8,9.4 -16.7,2.7 -26.1,-3.2 -8.6,-5.5 -13.7,-13.7 -16.4,-23.3 -6.2,-21.2 -5.1,-50 5.9,-69.5 9,-15.7 25.2,-26.1 43.4,-26.7 25,-0.9 34,20.9 36.3,42.1 0.6,5.6 2,19.1 -3.4,22.9 -5.9,4.1 -10.7,-4.9 -14.9,-8.7 -6,-4.9 -14.3,-6.4 -21.8,-6.6 -14.4,-0.3 -28,7.9 -36.4,19 -1.4,2.1 -2.7,4.4 -3.2,6.7 -0.9,-13.8 -0.3,-17 1.5,-9.4 1.3,3.5 3.1,6.6 5.4,9.4 6.4,9.3 16.7,15.3 23.8,24.1 3.2,4 10.1,18.5 5.9,23.2 v 0"
           style="fill:#eb7963;fill-opacity:1;fill-rule:nonzero;stroke:none"
           id="path180" /></g><path
         d="m 9989.5009,9915.8193 c 32.0001,47.5 4,72.2 68.9001,74.3 74,2.5 140.3,38.9997 190.5,37.5997 87.4,-2.5 417.6,-79.4997 196,-268.4997 -51.6,-44.1 -199.2,-241.4 -301.4,-182.9 -150.9001,86.5 -99.6,54.6 -176.3001,242.4 l 22.3,97.1"
         style="fill:#f69575;fill-opacity:1;fill-rule:nonzero;stroke:none"
         id="path182" /><path
         d="m 13069.001,12340.419 c 115.6,-180.1 63.4,-419.8 -116.7,-535.5 -180.1,-115.7 -419.8,-63.5 -535.4,116.6 -115.7,180.2 -63.5,419.9 116.6,535.5 180,115.6 419.8,63.4 535.5,-116.6"
         style="fill:#f69575;fill-opacity:1;fill-rule:nonzero;stroke:none"
         id="path184" /><g
         id="g186"
         transform="matrix(1.06366,0,0,1.06366,-2838.1989,-299.28069)"><path
           d="m 14498.3,10533 c -47.3,-496.7 -77.8,-1713.38 -77.8,-1713.38 176.2,-470.45 1858.1,-73.33 1867.8,33.85 11.7,128.42 -22.7,1032.47 -48.7,1561.23 0,0 -774.8,498 -1741.3,118.3"
           style="fill:#fcd062;fill-opacity:1;fill-rule:nonzero;stroke:none"
           id="path188" /></g><path
         d="m 12826.601,12681.819 c -471.3,-132.7 -529.8,-702.8 -529.8,-702.8 l -212.7,-936.5 c 0,0 535.3,-424.5 861.6,-305.1 0,0 265.8,706.9 349.2,1411.5 0,0 -3.3,517.5 -468.3,532.9"
         style="fill:#fcd062;fill-opacity:1;fill-rule:nonzero;stroke:none"
         id="path190" /><g
         id="g192"
         transform="matrix(1.06347,0,0,1.06347,-2838.1989,-299.28069)"><path
           d="m 14985.8,13717.3 c 50.1,-40.3 113.9,-13.8 171.1,-0.5 78,-91.6 -15.4,-183 102.8,-227.4 62.6,-23.4 155.2,-30.2 224.5,-41.4 55.4,-8.9 111.3,3.9 150.9,-37.5 42.9,-44.7 2.3,-184.2 52.9,-210.9 88.6,-46.7 158.1,195.7 270.9,176.5 96.3,-16.4 113.4,-169.2 79.7,-244.3 11.2,9.8 19.3,13.9 25.2,17.1 45.9,119.6 104.6,121.7 155.1,206.9 78.5,131.9 65.3,100.4 80.9,227.1 0.2,1.1 -15.4,55.5 -15.6,56.2 -36.9,134.7 -100,157.7 -130.1,215 -32,60.4 -81.3,102.7 -122.3,155.9 -37.7,49 -56.6,115 -99.9,158.8 -65.9,66.6 -173.7,100 -264.2,111.8 -97.5,12.9 -190.2,-47.7 -286.8,-30.7 -39.6,7 -76.7,42.9 -116.5,40.7 -48.4,-2.7 -82,-50.8 -123.9,-69.7 -77.9,-35 -200.6,-20.8 -267.1,-75.7 -73.7,-60.6 -57.8,-148.2 -12.5,-222.5 25.4,-41.6 76.9,-65.5 99.8,-108.7 6.3,-11.9 23.6,-95.4 25.1,-96.7"
           style="fill:#39180f;fill-opacity:1;fill-rule:nonzero;stroke:none"
           id="path194" /></g><path
         d="m 3985.3611,7570.3193 c 0,-461.3 -840.44,-835.2 -1877.21,-835.2 -1036.71,0 -1877.16,373.9 -1877.16,835.2 0,461.3 840.45,835.2 1877.16,835.2 1036.77,0 1877.21,-373.9 1877.21,-835.2"
         style="fill:#9fc7ec;fill-opacity:1;fill-rule:nonzero;stroke:none"
         id="path196" /><path
         d="m 2613.4911,7626.3193 30.79,5.7 30.81,258.5 -80.87,95.7 19.27,-359.9"
         style="fill:#4d1228;fill-opacity:1;fill-rule:nonzero;stroke:none"
         id="path198" /><path
         d="m 2576.4311,7647.2193 37.06,-20.9 -5.81,423.1 -65.32,14.8 34.07,-417"
         style="fill:#1a1e2b;fill-opacity:1;fill-rule:nonzero;stroke:none"
         id="path200" /><path
         d="m 2860.9111,8179.8193 68.68,-226.9 c 0,0 93.46,-218.5 170.55,-304.7 0,0 139.13,-190.7 -121.2,-178.1 0,0 -277.65,14.9 -273.44,193 3.63,153.2 -137.12,343.3 -137.12,343.3 -51.78,89.6 0.57,162.3 18.11,182.8 l 48.16,55.1 233.51,40.8 -7.25,-105.3"
         style="fill:#e68368;fill-opacity:1;fill-rule:nonzero;stroke:none"
         id="path202" /><path
         d="m 3115.2411,7577.8193 c -114.77,-21.4 -231.01,21.2 -302.39,91.6 -72.21,71.1 -154.58,331.3 -127.25,244.8 11.31,-35.7 -73.58,280.6 -50.95,330.1 l -48.16,-55.1 c -17.54,-20.5 -74.69,-98 -22.91,-187.6 0,0 145.55,-185.3 141.92,-338.5 -4.21,-178.1 273.44,-193 273.44,-193 156.27,-7.6 168.56,58.1 153.45,111.8 -5.47,-1.6 -11.17,-3 -17.15,-4.1"
         style="fill:#1a1e2b;fill-opacity:1;fill-rule:nonzero;stroke:none"
         id="path204" /><path
         d="m 3246.0611,7501.7193 c 0,0 39.22,-74.1 -85.17,-74.1 0,0 -465.87,29.6 -465.68,229.8 l -0.19,161.2 c 0,0 36.62,-230.1 324.35,-230.6 0,0 127.74,0 61.73,81.4 l 164.96,-167.7"
         style="fill:#1a1e2b;fill-opacity:1;fill-rule:nonzero;stroke:none"
         id="path206" /><g
         id="g208"
         transform="matrix(1.15933,0,0,1.15933,-2838.1989,-299.28069)"><path
           d="m 4601.25,16032.6 c 0,-147.8 -119.72,-267.5 -267.42,-267.5 -147.7,0 -267.43,119.7 -267.43,267.5 0,147.7 119.73,267.4 267.43,267.4 147.7,0 267.42,-119.7 267.42,-267.4"
           style="fill:#1d254a;fill-opacity:1;fill-rule:nonzero;stroke:none"
           id="path210" /></g><g
         id="g212"
         transform="matrix(1.10668,0,0,1.10668,-2838.1989,-299.28069)"><path
           d="m 4740.85,15504.1 h 551.78 c -25.08,80.3 -77.06,288.3 3.36,429.8 l -557.46,366.1 c 0,0 99.11,-614.3 2.32,-795.9"
           style="fill:#f69575;fill-opacity:1;fill-rule:nonzero;stroke:none"
           id="path214" /></g><g
         id="g216"
         transform="matrix(1.10668,0,0,1.10668,-2838.1989,-299.28069)"><path
           d="m 4802.7,15850.8 c 33.05,-84.5 86.5,-125.7 173.7,-153.2 96.59,-30.6 189.43,-36.6 280.21,-20.8 -8.75,84.7 -4.12,180.6 39.38,257.1 l -557.46,366.1 c 0,0 30.19,-187.4 40.95,-385.7 7.57,-21.2 14.93,-42.4 23.22,-63.5"
           style="fill:#e27462;fill-opacity:1;fill-rule:nonzero;stroke:none"
           id="path218" /></g><g
         id="g220"
         transform="matrix(1.15474,0,0,1.15474,-2838.1989,-299.28069)"><path
           d="m 5177.26,15148.2 28.03,79.6 68.53,233.9 c 9.46,37.2 13.91,88 1.16,124.2 -15.31,43.7 -27.17,114.8 -10.87,194.3 43.55,212.9 -50.96,324 -50.96,324 -124.29,195.8 -417.56,194.9 -417.56,194.9 -362.63,-18.9 -392.23,-370 -392.23,-370 -58.26,-233.6 128.05,-427.5 128.36,-427.9 23.59,-24.5 26.13,-64.3 37.49,-94.7 12.14,-32.4 30.5,-62.7 53.18,-88.7 51.03,-58.5 117.54,-114.4 185.91,-149.3 64.8,-33 190.4,-66.8 279.58,-65.9 36.95,0.4 73.29,0 89.38,45.6"
           style="fill:#f69575;fill-opacity:1;fill-rule:nonzero;stroke:none"
           id="path222" /></g><path
         d="m 1185.6911,7577.6193 31.01,-4.4 112.1,235 -45.86,116.6 -97.25,-347.2"
         style="fill:#4d1228;fill-opacity:1;fill-rule:nonzero;stroke:none"
         id="path224" /><path
         d="m 1157.3411,7609.5193 28.35,-31.9 130.27,402.8 -57.14,35 -101.48,-405.9"
         style="fill:#1a1e2b;fill-opacity:1;fill-rule:nonzero;stroke:none"
         id="path226" /><path
         d="m 1597.6111,8022.6193 c -6.14,-189 -20.18,-401.3 56.07,-580.2 0,0 70.59,-225.3 -171.9,-129.8 0,0 -258.24,103.1 -197.14,270.4 52.59,144 -19.74,369.2 -19.74,369.2 -20.27,101.5 52.68,153.6 75.83,167.4 l 63.28,36.7 h 242.75 l -49.15,-133.7"
         style="fill:#f69575;fill-opacity:1;fill-rule:nonzero;stroke:none"
         id="path228" /><path
         d="m 1645.4211,7370.9193 c -115.58,16.5 -212.02,94.2 -257.04,183.7 -45.62,90.5 -40.13,363.4 -41.98,272.7 -0.75,-37.5 20.32,289.4 57.61,329 l -63.28,-36.7 c -23.15,-13.8 -102.17,-68.9 -81.89,-170.5 0,0 78.39,-222.1 25.8,-366.1 -61.1,-167.3 197.14,-270.4 197.14,-270.4 145.54,-57.4 178.25,0.9 181.19,56.6 -5.7,0.2 -11.55,0.8 -17.55,1.7"
         style="fill:#1a1e2b;fill-opacity:1;fill-rule:nonzero;stroke:none"
         id="path230" /><path
         d="m 1744.9111,7256.8193 c 0,0 13.38,-82.7 -104.44,-42.9 0,0 -431.76,177.5 -367.36,367.1 l 51.54,152.8 c 0,0 -39.14,-229.8 233.19,-322.6 0,0 120.98,-41 84.58,57.3 l 102.49,-211.7"
         style="fill:#1a1e2b;fill-opacity:1;fill-rule:nonzero;stroke:none"
         id="path232" /><path
         d="m 1865.7811,10847.819 c -309.64,-571.8 -364.46,-804.5 -419.53,-1239.2997 -32.1,-252.9 -21.44,-1318 -54.61,-1476.9 -13.84,-65.9 236.49,-29.7 236.49,-29.7 45.77,111.4 774.75,2558.6997 774.75,2558.6997 0,0 81.52,253.5 13.87,297.6 -339.89,221.4 -416.01,138.8 -550.97,-110.4"
         style="fill:#f69575;fill-opacity:1;fill-rule:nonzero;stroke:none"
         id="path234" /><path
         d="m 1635.6711,8050.8193 c 45.77,111.4 767.21,2609.7997 767.21,2609.7997 0,0 81.52,253.5 13.87,297.6 -339.89,221.4 -416.01,138.8 -550.97,-110.4 -309.64,-571.8 -364.46,-804.5 -419.53,-1239.2997 -32.1,-252.9 -84.29,-1281.3 -117.45,-1440.2 0,0 185.19,-220.7 306.87,-117.5"
         style="fill:#1f232b;fill-opacity:1;fill-rule:nonzero;stroke:none"
         id="path236" /><path
         d="m 3255.7411,14982.619 c 0,0 237.97,-1007.1 206.01,-1117.1 -92,-316.9 -945.77,-761.6 -1724.26,-113.2 0,0 177.98,745 547.55,1375.1 0,0 135.8,-140.3 970.7,-144.8"
         style="fill:#1f232b;fill-opacity:1;fill-rule:nonzero;stroke:none"
         id="path238" /><g
         id="g240"
         transform="matrix(1.06392,0,0,1.06392,-2838.1989,-299.28069)"><path
           d="m 5613.77,16287.4 c 0,0 292.73,-566 423.41,-876.4 -54.75,-363.9 -252.5,-903.8 -331.99,-1017.7 -174.13,-249.5 -970.35,-26.7 -970.35,-26.7 l -229.51,766.2 c 669.95,240.5 317.17,946.4 317.17,946.4 l 105,66.4 c 0,0 107.16,-347 543.18,-334.6 0,0 143.22,93.2 37.81,489 0,0 62.95,-2 105.28,-12.6"
           style="fill:#5f45a5;fill-opacity:1;fill-rule:nonzero;stroke:none"
           id="path242" /></g><path
         d="m 2359.1411,13594.319 c 0,0 81.97,-1624.8 382.56,-2498.7 44.77,-130.3 558.47,42.9 558.47,42.9 0,0 259.21,1398 243.68,1977.2 -8.79,327.3 -125.94,1033.2 -125.94,1033.2 0,0 -963.34,126 -1058.77,-554.6"
         style="fill:#e68368;fill-opacity:1;fill-rule:nonzero;stroke:none"
         id="path244" /><path
         d="m 2756.4611,11101.419 543.71,37.1 c 0,0 -334.09,-2773.6997 -364.38,-2890.2997 0,0 -233.76,-84.6 -228.97,-17.4 11.32,162 -183.68,1406.7 -189.6,1661.5 -9.58,409.3997 6.48,667.9997 239.24,1209.0997"
         style="fill:#e68368;fill-opacity:1;fill-rule:nonzero;stroke:none"
         id="path246" /><path
         d="m 2359.1411,13594.319 c 0,0 81.97,-1624.8 382.56,-2498.7 44.77,-130.3 558.47,42.9 558.47,42.9 0,0 259.21,1398 243.68,1977.2 -8.79,327.3 -125.94,1033.2 -125.94,1033.2 0,0 -963.34,126 -1058.77,-554.6"
         style="fill:#1a1d23;fill-opacity:1;fill-rule:nonzero;stroke:none"
         id="path248" /><path
         d="m 3003.1711,8230.8193 c 55.13,107.1 297,2907.6997 297,2907.6997 l -543.71,-37.1 c -232.76,-541.1 -248.82,-799.7 -239.24,-1209.0997 5.92,-254.8 129.34,-1499.5 118.01,-1661.5 0,0 295.52,-140.6 367.94,0"
         style="fill:#1a1d23;fill-opacity:1;fill-rule:nonzero;stroke:none"
         id="path250" /><g
         id="g252"
         transform="matrix(1.05889,0,0,1.05889,-2838.1989,-299.28069)"><path
           d="m 6569.3,14502 -389.28,1411.2 c -140.16,377.6 -349.22,386.8 -349.22,386.8 -400.85,-60.7 -144.28,-764 -144.28,-764 l 494.75,-1172.2"
           style="fill:#e68368;fill-opacity:1;fill-rule:nonzero;stroke:none"
           id="path254" /></g><path
         d="m 5312.4811,13940.319 c -178.18,132.2 -190.54,168.1 -217.46,221.9 -116.19,230.8 180.18,180.2 252.5,152.1 41.52,-16.2 29.06,-118.7 143.88,-263 0,0 191.42,-152.6 244.29,-151.6 0,0 52.59,-15.6 46.88,-54.3 0,0 -159.91,-65.2 -470.09,94.9"
         style="fill:#e68368;fill-opacity:1;fill-rule:nonzero;stroke:none"
         id="path256" /><path
         d="m 4086.0311,15143.619 1207.06,-913.1 c 33.34,-166.5 -42.95,-178.4 -42.95,-178.4 l -973.6,443 c -416.87,180.4 -561.98,388 -561.98,388 0,0 -170.33,159.6 100.84,319.7 0,0 123.25,70.9 270.63,-59.2"
         style="fill:#e68368;fill-opacity:1;fill-rule:nonzero;stroke:none"
         id="path258" /><path
         d="m 5313.2211,14324.719 c 0,0 -52.79,-102.2 85.16,-95.6 l 145.99,80.5 c 0,0 43.97,15.8 35.31,56.9 0,0 -12.43,24.6 -57.58,8.7 l -208.88,-50.5"
         style="fill:#e68368;fill-opacity:1;fill-rule:nonzero;stroke:none"
         id="path260" /><path
         d="m 1694.2511,13458.419 c 0,0 6.27,-1625.4 220.67,-2524.3 31.92,-134.1 521.64,-93 521.64,-93 0,0 319.56,1537.2 360.28,2115.1 23.02,326.7 88.36,898.4 88.36,898.4 0,0 -1146.43,113.7 -1190.95,-396.2"
         style="fill:#f69575;fill-opacity:1;fill-rule:nonzero;stroke:none"
         id="path262" /><g
         id="g264"
         transform="matrix(1.06443,0,0,1.06443,-2838.1989,-299.28069)"><path
           d="m 4480.87,15887.9 c -234.75,-171.6 -114.71,-429.7 -114.71,-429.7 l 443.3,-1076.7 c 0,0 718.93,-244.5 892.99,4.9 79.45,113.8 153.01,415.7 249.51,851 65.58,295.8 70.04,812.6 -96.5,965.6 -96.04,88.3 -406.88,86.5 -409.16,97 l -503.62,-162.2 -461.81,-249.9"
           style="fill:#f69575;fill-opacity:1;fill-rule:nonzero;stroke:none"
           id="path266" /></g><path
         d="m 2941.7011,15102.519 c 45.34,8.2 289.98,-88.4 289.98,-88.4 0,0 176.19,-751.1 186.23,-865.2 10,-114.1 -775.31,-705.3 -1652.58,-368.7 0,0 442.99,1044.9 507.74,1263.3 74.33,250.9 668.63,59 668.63,59"
         style="fill:#f69575;fill-opacity:1;fill-rule:nonzero;stroke:none"
         id="path268" /><g
         id="g270"
         transform="matrix(1.0346,0,0,1.0346,-2838.1989,-299.28069)"><path
           d="m 5998.4,16300 c 0,0 250.29,-294.7 271.29,-513.6 11.7,-122 -142.26,-326 -219.24,-401.3 -54.59,-53.3 -377.86,711.5 -52.05,914.9"
           style="fill:#5f45a5;fill-opacity:1;fill-rule:nonzero;stroke:none"
           id="path272" /></g><path
         d="m 1980.2611,14029.119 c 0,0 -309.33,-68.7 -281.42,-635.7 27.19,-553.8 1035.34,-668.8 1164.8,-110.9 139.29,600.4 -332.88,952.4 -883.38,746.6"
         style="fill:#1f232b;fill-opacity:1;fill-rule:nonzero;stroke:none"
         id="path274" /><g
         id="g276"
         transform="matrix(1.17092,0,0,1.17092,-2838.1989,-299.28069)"><path
           d="m 4509.11,15153.5 c -1.84,163.3 2.29,153.3 2.29,153.3 3.84,47.7 97.43,-55.2 95.51,7 -8.87,284.5 94.52,420 134.95,441.9 109.77,59.4 225.59,76.5 317.39,60.2 143.91,-25.6 138.41,-217.1 138.41,-217.1 122.6,701.2 -659.46,477.1 -659.46,477.1 -380.88,-100 -341.62,-458.9 -341.62,-458.9 -46.68,-385.4 318.46,-608.1 318.46,-608.1 l -5.93,144.6"
           style="fill:#2a366d;fill-opacity:1;fill-rule:nonzero;stroke:none"
           id="path278" /></g><g
         id="g280"
         transform="matrix(1.10792,0,0,1.10792,-2838.1989,-299.28069)"><path
           d="m 4791.98,16073.9 c -13.53,-10.4 -30.84,-16.4 -52.46,-15.9 -58.53,0.8 -107.17,55.6 -108.52,122.2 -1.31,66.5 44.84,119.8 103.34,119 27.75,-0.4 53.23,-13 72.52,-33.1 28.11,-29.4 29.01,-83.7 22.34,-121 -5.27,-29.9 -17.04,-55.6 -37.22,-71.2"
           style="fill:#f7906e;fill-opacity:1;fill-rule:nonzero;stroke:none"
           id="path282" /></g><g
         id="g284"
         transform="matrix(1.10603,0,0,1.10603,-2838.1989,-299.28069)"><path
           d="m 4766.12,16264.9 c -3.44,35.1 -74.32,1.6 -63.61,-18.1 6.25,-11.4 18.66,-19.7 28.41,-27.7 13.35,-10.8 19.93,-20.8 21.78,-38.3 0.23,-1.9 0.66,-8 -1.4,-9.4 -9.18,-6.4 -39.24,27.8 -45.8,35 -12.96,14.2 -14.74,38.5 -8.51,56 6.61,18.7 18.89,27.5 38.84,26.2 15.94,-0.9 32.12,-2 31.21,-21.8 -0.04,-0.3 -0.74,-3.6 -0.92,-1.9 v 0"
           style="fill:#eb7963;fill-opacity:1;fill-rule:nonzero;stroke:none"
           id="path286" /></g><g
         id="g288"
         transform="matrix(1.10169,0,0,1.10169,-2838.1989,-299.28069)"><path
           d="m 4762.14,16292.6 c 7.44,7.4 14.51,1.2 22.07,-4.2 6.99,-5.2 10.91,-12.4 12.72,-20.7 4.11,-18.3 1.61,-42.8 -8.84,-58.7 -8.48,-12.8 -22.71,-20.7 -38.19,-20.3 -21.42,0.6 -27.79,19.5 -28.6,37.6 -0.24,4.9 -0.61,16.3 4.11,19.3 5.17,3.3 8.77,-4.6 12.21,-8.1 4.8,-4.5 11.8,-6.3 18.16,-6.8 12.18,-1 24.14,5.1 31.83,14.2 1.35,1.6 2.6,3.5 3.27,5.5 -0.04,-11.9 -0.67,-14.4 -1.9,-8 -0.93,3.1 -2.32,5.8 -4.04,8.4 -4.96,8.2 -13.32,13.8 -18.88,21.7 -2.64,3.6 -7.65,16.3 -3.92,20.1 v 0"
           style="fill:#eb7963;fill-opacity:1;fill-rule:nonzero;stroke:none"
           id="path290" /></g><g
         id="g292"
         transform="matrix(1.11255,0,0,1.11255,-2838.1989,-299.28069)"><path
           d="m 5105.88,16263.4 c 2.03,-20.9 -7.81,-38.9 -21.97,-40.3 -14.14,-1.3 -27.25,14.4 -29.26,35.3 -2.01,20.9 7.81,38.9 21.96,40.2 14.15,1.4 27.27,-14.4 29.27,-35.2"
           style="fill:#351f17;fill-opacity:1;fill-rule:nonzero;stroke:none"
           id="path294" /></g><g
         id="g296"
         transform="matrix(1.11527,0,0,1.11527,-2838.1989,-299.28069)"><path
           d="m 5382.27,16262.6 c 0.76,-20.9 -10.08,-38.2 -24.28,-38.7 -14.16,-0.6 -26.27,16 -27.03,36.8 -0.77,20.9 10.1,38.3 24.26,38.7 14.18,0.6 26.27,-15.9 27.05,-36.8"
           style="fill:#351f17;fill-opacity:1;fill-rule:nonzero;stroke:none"
           id="path298" /></g><g
         id="g300"
         transform="matrix(1.11953,0,0,1.11953,-2838.1989,-299.28069)"><path
           d="m 4950.07,16189.9 c 54.06,56.8 181.27,52.3 181.27,52.3 0,0 8.5,0.5 6.23,26.4 0,0 -0.65,22.9 -19,20.7 0,0 -161.8,10.7 -168.5,-99.4"
           style="fill:#2a366d;fill-opacity:1;fill-rule:nonzero;stroke:none"
           id="path302" /></g><g
         id="g304"
         transform="matrix(1.12258,0,0,1.12258,-2838.1989,-299.28069)"><path
           d="m 5420.08,16254.4 c -56.28,45.6 -159.86,10 -159.86,10 -18.25,-2.6 -12.88,-24.8 -12.88,-24.8 4.58,-25.6 12.89,-23.7 12.89,-23.7 0,0 85.62,26.3 152.67,10.8 2.49,9.2 5.01,18.4 7.18,27.7"
           style="fill:#2a366d;fill-opacity:1;fill-rule:nonzero;stroke:none"
           id="path306" /></g><g
         id="g308"
         transform="matrix(1.09205,0,0,1.09205,-2838.1989,-299.28069)"><path
           d="m 5459.45,16299.4 -210.07,-38.9 c -11.03,-2 -15.42,-8.6 -9.48,-14.5 0,0 60.44,-60.4 128.53,-47.7 68.09,12.8 102.13,90.9 102.13,90.9 2.97,6.9 -2.13,10.8 -11.11,10.2"
           style="fill:#ffffff;fill-opacity:1;fill-rule:nonzero;stroke:none"
           id="path310" /></g><g
         id="g312"
         transform="matrix(1.10668,0,0,1.10668,-2838.1989,-299.28069)"><path
           d="m 5238.42,16149.2 c 108.6,7.8 114.54,36.3 114.54,36.3 l -56.97,114.5 c 0,0 13.12,-114.5 -57.57,-150.8"
           style="fill:#eb7963;fill-opacity:1;fill-rule:nonzero;stroke:none"
           id="path314" /></g><path
         d="m 1694.2511,13458.419 c 0,0 6.27,-1625.4 220.67,-2524.3 31.92,-134.1 521.64,-93 521.64,-93 0,0 319.56,1537.2 360.28,2115.1 23.02,326.7 88.36,898.4 88.36,898.4 0,0 -1146.43,113.7 -1190.95,-396.2"
         style="fill:#1f232b;fill-opacity:1;fill-rule:nonzero;stroke:none"
         id="path316" /><path
         d="m 3255.7411,14982.619 c 0,0 237.97,-1007.1 206.01,-1117.1 -92,-316.9 -945.77,-761.6 -1724.26,-113.2 0,0 177.98,745 547.55,1375.1 0,0 135.8,-140.3 970.7,-144.8"
         style="fill:#1f232b;fill-opacity:1;fill-rule:nonzero;stroke:none"
         id="path318" /><g
         id="g320"
         transform="matrix(1.06392,0,0,1.06392,-2838.1989,-299.28069)"><path
           d="m 4734.84,14366.6 c 0,0 818.82,-252.3 992.97,-2.8 79.49,113.8 254.62,683.3 309.37,1047.2 -130.68,310.4 -423.41,876.4 -423.41,876.4 -42.33,10.6 -105.28,12.6 -105.28,12.6 105.41,-395.8 -37.81,-489 -37.81,-489 -436.02,-12.4 -543.18,334.6 -543.18,334.6 l -105,-66.4 c 0,0 324.8,-674.6 -302.09,-983.1 0,0 -15.08,-723.8 214.43,-729.5"
           style="fill:#5f45a5;fill-opacity:1;fill-rule:nonzero;stroke:none"
           id="path322" /></g><g
         id="g324"
         transform="matrix(1.09416,0,0,1.09416,-2838.1989,-299.28069)"><path
           d="m 4855.07,16263.7 c 0,-20 -16.24,-36.2 -36.3,-36.2 -20.03,0 -36.27,16.2 -36.27,36.2 0,20 16.24,36.3 36.27,36.3 20.06,0 36.3,-16.3 36.3,-36.3"
           style="fill:#ffffff;fill-opacity:1;fill-rule:nonzero;stroke:none"
           id="path326" /></g><g
         id="g328"
         transform="matrix(1.04144,0,0,1.04144,-2838.1989,-299.28069)"><path
           d="m 4939.05,16138.2 c 130.11,-138.4 123.51,-356 -14.9,-486.1 -138.34,-130.2 -573.1,-378.3 -577.16,-188.4 -7.97,373.2 6.59,576 144.91,706.1 138.4,130.2 317.02,106.7 447.15,-31.6"
           style="fill:#f69575;fill-opacity:1;fill-rule:nonzero;stroke:none"
           id="path330" /></g><g
         id="g332"
         transform="matrix(1.02201,0,0,1.02201,-2838.1989,-299.28069)"><path
           d="m 5048.83,16123.5 -306.24,176.5 -307.75,-192.5 c 0,0 -180.13,-1147.7 -113.77,-1410.3 70.71,-279.9 199.25,-73.7 260.07,2.8 0,0 502.31,1200.5 467.69,1423.5"
           style="fill:#f69575;fill-opacity:1;fill-rule:nonzero;stroke:none"
           id="path334" /></g><path
         d="m 1625.5011,14606.919 c 0,0 562.79,-402 1062.29,-620.6 0,0 165.04,69.4 82.5,145.6 -140.12,129.6 -752.74,716.2 -894.19,846 -250.6,85.6 -250.6,-371 -250.6,-371"
         style="fill:#f69575;fill-opacity:1;fill-rule:nonzero;stroke:none"
         id="path336" /><path
         d="m 2972.5811,13762.019 c -203.65,88 -223.91,120.2 -262.42,166.3 -165.85,198.1 134.22,216.6 211.09,205.8 44.06,-6.2 55.4,-108.9 200.21,-223.2 0,0 221.2,-104.7 272.46,-91.7 0,0 54.73,-3.1 57.99,-42.1 0,0 -140.73,-100.1 -479.33,-15.1"
         style="fill:#f69575;fill-opacity:1;fill-rule:nonzero;stroke:none"
         id="path338" /><path
         d="m 2911.7011,14136.519 c 0,0 -87.23,-74.9 43.12,-120.5 l 165.5,19.8 c 0,0 46.68,-1.8 54.02,39.6 0,0 -2.28,27.4 -50.12,29.6 l -212.52,31.5"
         style="fill:#f69575;fill-opacity:1;fill-rule:nonzero;stroke:none"
         id="path340" /><path
         d="m 6438.0211,12677.319 c -2.41,0.7 -4.89,1.1 -7.35,1.7 -3.75,0.8 -7.49,1.7 -11.31,2.4 -2.7,0.6 -5.48,1 -8.23,1.5 -2.65,0.4 -5.3,0.9 -7.97,1.3 l -5.61,-640.5 -1060.78,-715.7 6.71,764.4 878.76,592.8 c -12.89,-1.5 -25.87,-3.3 -38.97,-5.5 -2.83,-0.4 -5.66,-0.9 -8.52,-1.4 -4.99,-0.9 -9.99,-1.8 -15,-2.7 -3.36,-0.7 -6.72,-1.4 -10.09,-2 -4.85,-1 -9.71,-2 -14.56,-3.1 -3.06,-0.6 -6.11,-1.4 -9.18,-2 -7.68,-1.8 -15.37,-3.6 -23.04,-5.5 -2.06,-0.6 -4.11,-1.1 -6.16,-1.6 -9.49,-2.4 -18.96,-5.1 -28.44,-7.9 -1.68,-0.4 -3.36,-1 -5.04,-1.5 -13.09,-3.8 -26.14,-8 -39.13,-12.4 -0.47,-0.2 -0.93,-0.3 -1.41,-0.5 -13.07,-4.5 -26.07,-9.3 -38.96,-14.3 -0.93,-0.4 -1.87,-0.7 -2.78,-1.1 -14.64,-5.8 -29.13,-11.9 -43.44,-18.3 -0.67,-0.3 -1.35,-0.6 -1.99,-0.9 -14.47,-6.5 -28.72,-13.4 -42.74,-20.7 -0.48,-0.2 -0.96,-0.4 -1.42,-0.7 -14.19,-7.3 -28.14,-15.1 -41.77,-23.1 -0.24,-0.2 -0.51,-0.3 -0.75,-0.5 -13.87,-8.1 -27.4,-16.7 -40.55,-25.6 -117.07,-78.9 -178.66,-167.7 -179.32,-243.2 2.24,254.8 4.48,509.6 6.72,764.3 0.65,75.6 62.24,164.3 179.32,243.3 13.14,8.9 26.68,17.4 40.54,25.6 0.25,0.2 0.51,0.3 0.76,0.4 13.63,8.1 27.57,15.8 41.76,23.2 0.48,0.2 0.97,0.5 1.46,0.7 13.99,7.2 28.21,14.1 42.65,20.7 0.71,0.3 1.44,0.6 2.15,0.9 14.24,6.4 28.64,12.5 43.19,18.2 0.29,0.2 0.59,0.3 0.88,0.4 0.8,0.3 1.61,0.6 2.41,0.9 12.68,4.9 25.45,9.6 38.28,14 0.61,0.3 1.22,0.5 1.84,0.7 12.85,4.4 25.76,8.4 38.7,12.3 1.12,0.3 2.22,0.7 3.36,1.1 0.73,0.2 1.46,0.4 2.21,0.6 9.39,2.7 18.79,5.3 28.2,7.7 2.1,0.6 4.21,1.1 6.31,1.7 7.57,1.9 15.14,3.7 22.7,5.4 1.52,0.3 3.05,0.7 4.58,1.1 1.7,0.4 3.39,0.7 5.09,1.1 4.66,1 9.29,1.9 13.92,2.9 3.57,0.7 7.11,1.4 10.67,2.1 4.73,0.9 9.44,1.8 14.15,2.6 2.5,0.4 4.99,0.9 7.47,1.3 0.63,0.1 1.24,0.2 1.87,0.2 13.04,2.2 25.97,4 38.82,5.5 1.11,0.2 2.26,0.4 3.37,0.5 0.83,0.1 1.64,0.1 2.49,0.2 11.26,1.3 22.43,2.3 33.48,3.1 0.93,0 1.86,0.2 2.8,0.2 1.25,0.1 2.47,0.1 3.73,0.2 10.42,0.7 20.8,1.1 31,1.3 0.12,0.1 0.25,0.1 0.39,0.1 0.17,0 0.34,0 0.51,0 9.64,0.1 19.11,0.1 28.52,-0.1 1.26,0 2.58,0 3.82,0 1.1,-0.1 2.18,-0.2 3.28,-0.2 9.45,-0.4 18.81,-0.9 27.97,-1.5 0.26,-0.1 0.55,-0.1 0.81,-0.1 0.72,-0.1 1.4,-0.2 2.12,-0.3 9.51,-0.8 18.84,-1.9 28,-3.1 1.04,-0.1 2.12,-0.2 3.15,-0.4 0.72,-0.1 1.4,-0.2 2.15,-0.4 3.67,-0.5 7.27,-1.2 10.86,-1.8 2.93,-0.4 5.87,-0.9 8.76,-1.5 3.57,-0.7 7.01,-1.5 10.5,-2.3 2.38,-0.5 4.83,-0.9 7.19,-1.5 0.31,-0.1 0.61,-0.2 0.92,-0.2 8.21,-2.1 16.16,-4.3 23.93,-6.8 1.82,-0.5 3.61,-1.1 5.4,-1.7 7.84,-2.6 15.52,-5.4 22.85,-8.5 5.89,-2.6 11.34,-5.3 16.57,-8.1 1.57,-0.8 3.02,-1.7 4.54,-2.5 1.84,-1.1 3.82,-2.1 5.58,-3.1 1.56,-1 2.92,-2 4.43,-3 1.88,-1.1 3.75,-2.3 5.55,-3.6 2.89,-1.9 5.62,-3.9 8.28,-5.9 1.57,-1.3 3.17,-2.4 4.66,-3.6 0.51,-0.4 1.09,-0.9 1.59,-1.3 3.15,-2.5 6.12,-5.3 8.93,-8 0.39,-0.3 0.75,-0.7 1.12,-1.1 2.23,-2.1 4.4,-4.3 6.42,-6.5 v -0.2 h 0.01 v 0.2 c 0.65,-0.7 1.21,-1.5 1.84,-2.1 0.99,-1.2 1.93,-2.3 2.89,-3.4 2,-2.4 3.92,-4.8 5.75,-7.2 0.83,-1.2 1.7,-2.3 2.51,-3.4 0.41,-0.6 0.89,-1.2 1.29,-1.7 0.88,-1.3 1.6,-2.6 2.45,-3.8 1.56,-2.4 3.12,-4.8 4.58,-7.2 1.05,-1.8 2.07,-3.6 3.07,-5.3 1.38,-2.5 2.74,-4.9 4.01,-7.4 0.39,-0.7 0.83,-1.4 1.2,-2.1 0.45,-0.9 0.79,-1.7 1.19,-2.5 2.14,-4.3 4.18,-8.6 6.13,-12.9 0.32,-0.7 0.66,-1.5 0.99,-2.2 2.59,-5.8 5.11,-11.7 7.62,-17.5 1.63,-3.8 3.3,-7.6 4.94,-11.4 0.76,-1.7 1.54,-3.5 2.33,-5.2 2.26,-5 4.6,-10.1 7.11,-15 1.25,-2.5 2.63,-5 3.99,-7.4 0.74,-1.4 1.42,-2.7 2.2,-4.1 2.19,-3.8 4.52,-7.5 7.02,-11.3 1.59,-2.3 3.36,-4.7 5.07,-7.1 2.37,-3.3 4.89,-6.6 7.49,-10 1.13,-1.4 2.26,-2.9 3.43,-4.3 3.54,-4.4 7.28,-8.8 11.24,-13.1 0.23,-0.3 0.46,-0.6 0.69,-0.9 4.13,-4.4 8.51,-8.8 13.04,-13.2 1.32,-1.3 2.72,-2.5 4.06,-3.7 3.34,-3.1 6.77,-6.2 10.32,-9.3 1.71,-1.4 3.44,-2.9 5.19,-4.3 3.6,-2.9 7.32,-5.8 11.14,-8.6 1.69,-1.2 3.34,-2.5 5.07,-3.8 5.57,-3.9 11.27,-7.8 17.27,-11.5 0.25,-0.1 0.73,-0.4 1.07,-0.6 0.54,-0.3 1.08,-0.6 1.8,-1 0.34,-0.2 0.76,-0.4 1.14,-0.6 0.79,-0.4 1.61,-0.9 2.57,-1.4 0.55,-0.3 1.21,-0.6 1.82,-1 0.97,-0.4 1.92,-0.9 3.02,-1.5 0.66,-0.3 1.45,-0.7 2.16,-1 1.17,-0.6 2.29,-1.2 3.58,-1.8 0.92,-0.5 1.95,-0.9 2.92,-1.4 1.24,-0.6 2.41,-1.2 3.73,-1.9 1.43,-0.6 3.01,-1.4 4.54,-2.1 0.95,-0.4 1.82,-0.8 2.77,-1.3 1.71,-0.8 3.53,-1.6 5.32,-2.5 0.96,-0.4 1.87,-0.8 2.86,-1.3 2.8,-1.2 5.66,-2.5 8.64,-3.9 20.1,-9 43.75,-18.7 65.76,-26.1 l 1061.81,716.5 -6.7,-764.3 -1061.81,-716.6 c -22.02,7.4 -45.68,17.2 -65.79,26.1 -2.97,1.4 -5.88,2.7 -8.69,4 -0.52,0.2 -0.98,0.4 -1.49,0.6 -2.26,1.1 -4.5,2.1 -6.62,3.2 -0.87,0.3 -1.63,0.7 -2.46,1.1 -1.67,0.8 -3.33,1.6 -4.89,2.3 -1.07,0.5 -2.02,1 -3.02,1.4 -1.24,0.7 -2.52,1.3 -3.67,1.9 -0.81,0.3 -1.53,0.7 -2.31,1.1 -1.2,0.6 -2.43,1.2 -3.52,1.7 -0.62,0.4 -1.13,0.6 -1.73,0.9 -1.06,0.6 -2.15,1.1 -3.07,1.6 -0.5,0.2 -0.9,0.5 -1.35,0.7 -0.86,0.5 -1.7,0.9 -2.38,1.3 -0.38,0.2 -0.61,0.3 -0.94,0.5 -0.5,0.3 -1.1,0.6 -1.47,0.9 -0.1,0 -0.21,0.1 -0.31,0.2 -5.97,3.6 -11.68,7.5 -17.21,11.4 -1.8,1.3 -3.52,2.6 -5.28,3.9 -3.72,2.8 -7.37,5.6 -10.88,8.5 -0.92,0.8 -1.94,1.4 -2.82,2.2 -0.9,0.7 -1.68,1.5 -2.58,2.2 -3.46,3 -6.79,6 -10.05,9 -1.43,1.3 -2.9,2.6 -4.29,4 -4.5,4.3 -8.85,8.8 -12.94,13.2 -0.06,0 -0.09,0.1 -0.14,0.1 -0.27,0.3 -0.49,0.6 -0.76,1 -3.91,4.2 -7.57,8.5 -11.07,12.8 -1.17,1.4 -2.27,2.9 -3.41,4.3 -2.64,3.4 -5.16,6.8 -7.59,10.1 -0.57,0.9 -1.28,1.7 -1.85,2.5 -1.07,1.5 -2.12,3 -3.14,4.6 -2.5,3.7 -4.82,7.4 -7,11.2 -1.02,1.8 -1.93,3.5 -2.88,5.3 -1.07,2 -2.18,3.9 -3.17,5.9 -0.05,0.1 -0.09,0.2 -0.14,0.2 -2.56,5.1 -4.94,10.2 -7.25,15.3 -0.63,1.4 -1.26,2.9 -1.88,4.3 -1.99,4.5 -3.98,9.1 -5.93,13.6 -2.24,5.3 -4.52,10.6 -6.86,15.8 -0.42,0.9 -0.88,2 -1.32,2.9 -1.86,4.1 -3.8,8.2 -5.83,12.2 -0.82,1.7 -1.66,3.3 -2.53,5 -1.23,2.4 -2.55,4.7 -3.9,7.1 -1.02,1.8 -2.05,3.7 -3.14,5.4 -1.44,2.5 -3,4.8 -4.6,7.2 -1.2,1.8 -2.37,3.7 -3.68,5.5 -0.83,1.1 -1.72,2.3 -2.58,3.4 -1.79,2.4 -3.67,4.8 -5.62,7.1 -1,1.2 -2,2.4 -3.02,3.5 -2.59,3 -5.3,5.8 -8.19,8.7 -0.4,0.3 -0.74,0.7 -1.15,1.1 -3.26,3.1 -6.83,6.2 -10.54,9.2 -1.46,1.2 -3.08,2.4 -4.6,3.6 -2.67,2 -5.42,4 -8.32,5.9 -1.78,1.3 -3.67,2.5 -5.55,3.7 -3.19,2.1 -6.5,4 -9.98,6 -1.51,0.8 -3.01,1.7 -4.57,2.5 -5.23,2.8 -10.66,5.6 -16.55,8.2 -7.34,3.1 -15.01,5.8 -22.83,8.4 -1.8,0.6 -3.6,1.2 -5.44,1.7 -7.79,2.5 -15.77,4.8 -24,6.7"
         style="fill:#3594c8;fill-opacity:1;fill-rule:nonzero;stroke:none"
         id="path342" /><path
         d="m 2050.3111,12710.819 6.72,764.4 1361.27,-572.7 -5.57,-636.2 c 0.44,0 0.9,0 1.32,-0.1 2.96,-0.3 5.88,-0.7 8.82,-1 10.86,-1.2 21.67,-2.3 32.37,-3.2 1.07,-0.1 2.14,-0.1 3.19,-0.3 7.86,-0.6 15.65,-1.1 23.4,-1.6 2.91,-0.1 5.82,-0.2 8.74,-0.4 5.85,-0.3 11.69,-0.6 17.47,-0.8 2.15,0 4.27,0 6.41,-0.1 13.68,-0.3 27.18,-0.5 40.37,-0.2 1.77,0 3.53,0.1 5.3,0.1 11.01,0.3 21.86,0.7 32.49,1.4 0.81,0 1.65,0.1 2.46,0.1 9.95,0.7 19.64,1.7 29.19,2.7 2.4,0.2 4.77,0.5 7.14,0.8 8.13,0.9 16.12,2.1 23.94,3.3 0.93,0.1 1.91,0.3 2.83,0.4 8.47,1.5 16.67,3.1 24.72,4.8 2.07,0.4 4.09,0.9 6.13,1.4 7.54,1.8 14.89,3.7 22,5.7 1.02,0.3 2.1,0.5 3.12,0.8 1.49,0.5 2.92,1 4.4,1.5 3.9,1.2 7.77,2.4 11.54,3.7 1.97,0.7 3.85,1.4 5.79,2.1 3.21,1.2 6.4,2.4 9.5,3.7 1.79,0.6 3.56,1.5 5.29,2.1 3.05,1.4 6.04,2.7 8.98,4.1 1.67,0.8 3.34,1.6 4.97,2.4 3.02,1.5 5.96,3.1 8.86,4.7 1.32,0.7 2.72,1.5 4.04,2.2 4.11,2.4 8.11,4.8 11.9,7.4 51.12,34.5 58.86,78.7 60.1,124.6 0.11,12.4 0.22,24.8 0.32,37.2 0.34,37.8 2.92,75.2 27.84,107.9 5.22,6.9 59.96,53.5 106.27,80.8 l 1359.54,-572.1 -6.71,-764.4 -1359.55,572.1 c -46.31,-27.3 -101.03,-73.8 -106.24,-80.7 -22.39,-29.5 -26.76,-62.6 -27.64,-96.4 -0.12,-12.4 -0.23,-24.7 -0.33,-37.1 -0.45,-50 -4.86,-98.9 -60.3,-136.3 -3.81,-2.6 -7.8,-5 -11.89,-7.4 -1.35,-0.7 -2.78,-1.5 -4.14,-2.2 -2.87,-1.6 -5.77,-3.1 -8.76,-4.6 -1.65,-0.9 -3.33,-1.7 -5.02,-2.5 -2.94,-1.3 -5.93,-2.7 -8.98,-4 -1.72,-0.8 -3.45,-1.5 -5.22,-2.2 -0.98,-0.4 -1.9,-0.9 -2.89,-1.3 -2.2,-0.8 -4.51,-1.6 -6.75,-2.4 -1.9,-0.7 -3.73,-1.4 -5.69,-2.1 -3.68,-1.2 -7.47,-2.5 -11.28,-3.7 -1.6,-0.5 -3.13,-1 -4.76,-1.5 -0.25,0 -0.51,-0.1 -0.78,-0.2 -0.64,-0.2 -1.36,-0.3 -2.02,-0.5 -7.22,-2.1 -14.72,-4 -22.36,-5.8 -1.1,-0.3 -2.1,-0.5 -3.21,-0.8 -0.86,-0.2 -1.81,-0.3 -2.68,-0.5 -8.1,-1.8 -16.38,-3.4 -24.92,-4.8 -0.15,-0.1 -0.29,-0.1 -0.45,-0.1 -0.6,-0.1 -1.27,-0.2 -1.87,-0.3 -7.98,-1.3 -16.2,-2.4 -24.55,-3.4 -1.19,-0.1 -2.31,-0.3 -3.53,-0.5 -1.05,-0.1 -2.21,-0.2 -3.3,-0.3 -9.57,-1 -19.28,-1.9 -29.26,-2.6 -0.22,0 -0.44,-0.1 -0.66,-0.1 -0.65,0 -1.35,0 -1.99,0 -10.63,-0.7 -21.51,-1.2 -32.56,-1.5 -1.13,0 -2.21,-0.1 -3.33,-0.1 -0.54,0 -1.12,0 -1.66,0 -13.17,-0.2 -26.67,-0.1 -40.37,0.2 -1.08,0.1 -2.14,0 -3.24,0.1 -1.11,0 -2.26,0 -3.36,0.1 -5.74,0.1 -11.53,0.4 -17.33,0.8 -2.92,0.1 -5.81,0.2 -8.77,0.4 -8.28,0.4 -16.59,1 -25.02,1.7 -0.44,0 -0.9,0 -1.36,0.1 0,0 -0.06,0 -0.1,0 -10.76,0.9 -21.68,2 -32.63,3.2 -2.86,0.3 -5.7,0.7 -8.57,1 -9.62,1.2 -19.31,2.4 -29.06,3.8 -1.19,0.1 -2.36,0.3 -3.55,0.5 -0.41,0 -0.83,0.1 -1.24,0.1 -9.01,1.4 -18.05,2.8 -27.13,4.3 -1.54,0.3 -3.1,0.6 -4.63,0.9 -7.6,1.3 -15.21,2.6 -22.85,4.1 -3.4,0.6 -6.83,1.4 -10.23,2.1 -5.8,1.1 -11.6,2.3 -17.43,3.5 -3.82,0.8 -7.62,1.7 -11.45,2.6 -5.44,1.1 -10.9,2.4 -16.35,3.7 -1.44,0.3 -2.89,0.6 -4.33,1 -1.24,0.2 -2.49,0.6 -3.74,0.9 -14.75,3.6 -29.47,7.4 -44.2,11.6 -1.93,0.5 -3.87,1 -5.79,1.6 -14.99,4.3 -29.93,8.7 -44.78,13.6 -1.53,0.4 -3.04,1 -4.53,1.5 -15.28,5 -30.49,10.2 -45.57,15.8 -0.89,0.3 -1.78,0.7 -2.68,1 -15.67,5.8 -31.24,12 -46.57,18.5 -7.52,3.1 -14.93,6.4 -22.2,9.5 -10.32,4.7 -20.32,9.3 -30.11,14.1 -3.36,1.6 -6.59,3.3 -9.9,4.9 -6.39,3.2 -12.68,6.4 -18.83,9.6 -3.65,1.9 -7.18,3.8 -10.74,5.7 -5.66,3.1 -11.21,6.2 -16.66,9.3 -3.43,1.9 -6.84,3.9 -10.19,5.9 -2.03,1.2 -4.15,2.4 -6.15,3.6 -3.43,2 -6.66,4.1 -9.99,6.2 -2.93,1.8 -5.9,3.6 -8.76,5.4 -6.02,3.9 -11.83,7.8 -17.55,11.7 -1.83,1.3 -3.78,2.5 -5.6,3.8 -7.37,5.2 -14.46,10.4 -21.27,15.6 -1.75,1.3 -3.38,2.7 -5.1,4.1 -4.02,3.1 -8.11,6.3 -11.93,9.5 -0.73,0.6 -1.36,1.2 -2.11,1.8 -4.98,4.2 -9.63,8.4 -14.25,12.6 -2.04,1.9 -4.23,3.8 -6.2,5.7 -6.42,6.1 -12.51,12.1 -18.12,18.2 -0.03,0.1 -0.05,0.1 -0.05,0.1 -4.93,5.4 -9.48,10.7 -13.76,16 -1.38,1.8 -2.56,3.5 -3.88,5.2 -2.27,2.9 -4.63,5.9 -6.68,8.8 -0.56,0.8 -1.02,1.6 -1.56,2.4 -1.02,1.5 -1.95,3 -2.93,4.5 -2.44,3.7 -4.71,7.4 -6.83,11.2 -0.87,1.5 -1.79,3.1 -2.6,4.7 -0.47,0.8 -1.04,1.7 -1.5,2.6 -2,3.9 -3.8,7.8 -5.46,11.7 -0.27,0.7 -0.47,1.3 -0.75,2 -1.12,2.7 -2.2,5.5 -3.12,8.2 -0.6,1.7 -1.05,3.4 -1.55,5.1 -0.25,0.9 -0.56,1.8 -0.79,2.7 -1.07,3.9 -2.01,7.8 -2.67,11.7 -0.15,0.8 -0.19,1.5 -0.32,2.3 -0.14,0.8 -0.22,1.7 -0.31,2.5 -0.58,4.4 -0.98,8.7 -0.98,13.1 0,0.5 0,0.9 0,1.3 1.59,181.4 3.19,362.7 4.78,544.1 l -714.41,300.5"
         style="fill:#5ab2e7;fill-opacity:1;fill-rule:nonzero;stroke:none"
         id="path344" /><path
         d="m 7907.3011,13822.319 -3286.47,1382.9 -2563.8,-1730 1361.27,-572.7 c -30.03,-25.4 -81.23,-55 -91.74,-59.9 -47.75,-21.7 -108.71,-37.9 -167.92,-48.9 -114.52,-21.1 -255.1,-17.6 -336.65,-72.6 -127.53,-86.1 -27.11,-242.4 223.86,-354.3 7.26,-3.2 14.7,-6.4 22.2,-9.6 267.17,-112.4 590.15,-131.8 721.36,-43.2 106.6,71.9 24.62,186.1 88.26,269.7 5.22,6.9 59.96,53.5 106.27,80.8 l 1359.54,-572.1 1060.77,715.7 c -4.31,2 -8.86,4.1 -13.59,6.2 -52.42,23.4 -127.68,48.5 -139.63,51.2 -158.2,34.7 -372.15,-7.4 -508.81,50.1 -167.46,74.5 -133.27,243.7 72.8,382.7 208.36,140.7 513.71,197.3 681.97,126.5 104.37,-46.5 100.28,-119.7 140.79,-179.8 21.21,-31.5 52.44,-64.1 94.01,-89.8 5,-3.1 23.94,-12.6 47.94,-23.3 20.1,-9 43.75,-18.7 65.76,-26.1 l 1061.81,716.5"
         style="fill:#89bfea;fill-opacity:1;fill-rule:nonzero;stroke:none"
         id="path346" /><rect
         style="opacity:0;fill:#1a372f;fill-opacity:1;stroke:#070000;stroke-width:7.5;stroke-opacity:1"
         id="rect1209"
         width="19479.945"
         height="24869.25"
         x="31204.271"
         y="-21049.688"
         transform="scale(1,-1)" /><rect
         style="opacity:0;fill:#86812f;fill-opacity:1;stroke:#070000;stroke-width:7.5;stroke-opacity:1"
         id="rect1211"
         width="17231.854"
         height="26527.312"
         x="31568.643"
         y="-17069.27"
         transform="scale(1,-1)" /><rect
         style="opacity:0;fill:#86812f;fill-opacity:1;stroke:#070000;stroke-width:7.5;stroke-opacity:1"
         id="rect1213"
         width="17955.23"
         height="11668.114"
         x="-2164.4856"
         y="-13934.604"
         transform="scale(1,-1)" /></g></g></svg>
