<?xml version="1.0" encoding="iso-8859-1"?>
<!-- Generator: Adobe Illustrator 19.0.0, SVG Export Plug-In . SVG Version: 6.00 Build 0)  -->
<svg version="1.1" id="Layer_1" xmlns="http://www.w3.org/2000/svg" xmlns:xlink="http://www.w3.org/1999/xlink" x="0px" y="0px"
	 viewBox="0 0 496 496" style="enable-background:new 0 0 496 496;" xml:space="preserve">
<polygon style="fill:#035F75;" points="496,202 250.4,358.8 0,193.2 245.6,6.8 "/>
<polyline style="fill:#024651;" points="245.6,6.8 496,202 250.4,358.8 "/>
<path style="fill:#D86699;" d="M248,202.8c-16-21.6-38.4-36-67.2-36c-41.6,0-75.2,29.6-75.2,66.4c0,13.6,4,26.4,12.8,36.8l0,0
	c0,0,0,0,0.8,0.8L248,486V202.8z"/>
<path style="fill:#C14985;" d="M248,202.8c16-21.6,38.4-36,67.2-36c41.6,0,75.2,29.6,75.2,66.4c0,13.6-4,26.4-12.8,36.8l0,0
	c0,0,0,0-0.8,0.8L248,486V202.8z"/>
<polygon style="fill:#13D1BA;" points="252,356.4 0,193.2 0,193.2 0,489.2 496,489.2 496,202 "/>
<polyline style="fill:#09B5B0;" points="0,489.2 496,489.2 496,202 247.2,357.2 "/>
<g>
	<polyline style="fill:#13D1BA;" points="496,489.2 496,202 249.6,355.6 	"/>
	<circle style="fill:#13D1BA;" cx="248" cy="86" r="10.4"/>
</g>
<path style="fill:#035F75;" d="M248,403.6c-8-7.2-12-11.2-21.6-11.2c-13.6,0-24,9.6-24,21.6c0,4,1.6,8,4,12l0,0l0,0l41.6,40.8V403.6
	z"/>
<path style="fill:#024651;" d="M248,403.6c8-7.2,12-11.2,21.6-11.2c13.6,0,24,9.6,24,21.6c0,4-1.6,8-4,12l0,0l0,0L248,466V403.6z"/>
<g>
</g>
<g>
</g>
<g>
</g>
<g>
</g>
<g>
</g>
<g>
</g>
<g>
</g>
<g>
</g>
<g>
</g>
<g>
</g>
<g>
</g>
<g>
</g>
<g>
</g>
<g>
</g>
<g>
</g>
</svg>
